<?xml version="1.0" ?>
<!DOCTYPE svg  PUBLIC '-//W3C//DTD SVG 1.1//EN'  'http://www.w3.org/Graphics/SVG/1.1/DTD/svg11.dtd'>
<!-- Uploaded to: SVG Repo, www.svgrepo.com, Generator: SVG Repo Mixer Tools -->
<svg fill="#000000" width="800px" height="800px" viewBox="0 0 846.66 846.66" style="shape-rendering:geometricPrecision; text-rendering:geometricPrecision; image-rendering:optimizeQuality; fill-rule:evenodd; clip-rule:evenodd" version="1.1" xml:space="preserve" xmlns="http://www.w3.org/2000/svg" xmlns:xlink="http://www.w3.org/1999/xlink">
<defs>
<style type="text/css">
   <![CDATA[
    .fil0 {fill:black;fill-rule:nonzero}
   ]]>
  </style>
</defs>
<g id="Layer_x0020_1">
<path class="fil0" d="M104.86 80.02l636.94 0c53.38,0 96.97,43.59 96.97,96.97l0 332.08c0,53.38 -43.59,96.97 -96.97,96.97l-218.74 0 34.84 119.08 45.76 0c27.3,0 27.3,41.52 0,41.52 -120.22,0 -240.44,0 -360.66,0 -27.3,0 -27.3,-41.52 0,-41.52l45.76 0 34.84 -119.08 -218.74 0c-53.38,0 -96.97,-43.59 -96.97,-96.97l0 -332.08c0,-53.37 43.59,-96.97 96.97,-96.97zm-1.01 203.54c-9.49,-25.5 29.27,-39.92 38.76,-14.44l21.56 57.49 20.85 -20.2c8.05,-7.83 20.86,-7.79 28.86,0l20.85 20.2 21.56 -57.49c9.48,-25.48 48.24,-11.06 38.75,14.44l-32.34 86.23c-4.63,14.43 -23.03,19.29 -34.13,8.49l-29.12 -28.21 -29.12 28.21c-10.63,10.23 -28.54,6.54 -33.81,-7.62l-32.67 -87.1zm447.77 0c-9.49,-25.5 29.27,-39.92 38.76,-14.44l21.55 57.49 20.85 -20.2c8.06,-7.83 20.86,-7.79 28.86,0l20.85 20.2 21.56 -57.49c9.49,-25.48 48.25,-11.06 38.76,14.44l-32.34 86.23c-4.64,14.43 -23.03,19.29 -34.14,8.49l-29.12 -28.21 -29.12 28.21c-10.63,10.23 -28.54,6.54 -33.81,-7.62l-32.66 -87.1zm-223.88 0c-9.49,-25.5 29.27,-39.92 38.75,-14.44l21.56 57.49 20.85 -20.2c8.06,-7.83 20.86,-7.79 28.86,0l20.85 20.2 21.56 -57.49c9.49,-25.48 48.24,-11.06 38.75,14.44l-32.33 86.23c-4.64,14.43 -23.03,19.29 -34.14,8.49l-29.12 -28.21 -29.12 28.21c-10.63,10.23 -28.54,6.54 -33.81,-7.62l-32.66 -87.1zm-278.34 165.28l610.72 0c27.3,0 27.3,41.52 0,41.52l-610.72 0 0 18.71c0,30.46 25,55.46 55.46,55.46 212.31,0 424.63,0 636.94,0 30.46,0 55.46,-25 55.46,-55.46l0 -332.08c0,-30.46 -25,-55.46 -55.46,-55.46l-636.94 0c-30.45,0 -55.46,25.01 -55.46,55.46l0 271.85zm430.56 157.2l-113.26 0 -34.84 119.08 182.94 0 -34.84 -119.08z"/>
</g>
</svg>