<svg
          id="female"
          viewBox="0 0 128 128"
          class="h-7 w-6 fill-gray-100"
          xmlns="http://www.w3.org/2000/svg"
        >
          <path
            d="M64,72.7c0,0,0-0.1,0-0.1c0,0,0,0,0,0V72.7z"
            fill="#000"
          ></path>
          <path
            d="M54.6 49.2c.7 0 1.4-.3 1.9-.8.5-.5.8-1.2.8-1.9s-.3-1.4-.8-1.9c-.5-.5-1.2-.8-1.9-.8-.7 0-1.4.3-1.9.8-.5.5-.8 1.2-.8 1.9 0 .7.3 1.4.8 1.9C53.2 48.9 53.9 49.2 54.6 49.2zM73.8 49.2c.7 0 1.4-.3 1.9-.8.5-.5.8-1.2.8-1.9s-.3-1.4-.8-1.9c-.5-.5-1.2-.8-1.9-.8s-1.4.3-1.9.8c-.5.5-.8 1.2-.8 1.9s.3 1.4.8 1.9C72.5 48.9 73.1 49.2 73.8 49.2z"
            fill="#000"
          ></path>
          <path
            d="M40.6 78.1h10.7V67.1c3.7 2.4 8.1 3.7 12.5 3.7v0c0 0 .1 0 .1 0 0 0 .1 0 .1 0v0c4.4 0 8.8-1.3 12.5-3.7v11.1h10.7c.2 0 .4 0 .6 0h8.3V34.4c0-17.8-14.4-32.2-32.1-32.3v0c0 0-.1 0-.1 0 0 0-.1 0-.1 0v0C46.2 2.2 31.8 16.7 31.8 34.4v43.7H40C40.2 78.1 40.4 78.1 40.6 78.1zM44 38.1c0-3.2 2.6-5.8 5.8-5.8h14.1.2 14.1c3.2 0 5.8 2.6 5.8 5.8v9.1c0 4.5-1.5 8.6-4 12-1 1.3-2.2 2.6-3.4 3.6-3.4 2.8-7.8 4.5-12.6 4.5-4.8 0-9.2-1.7-12.6-4.5-1.3-1.1-2.5-2.3-3.4-3.6-2.5-3.4-4-7.5-4-12V38.1zM116.8 123.3c-.9-5.2-3-16.3-3.5-17.8-2.3-7-8.2-10.4-14.5-13-.8-.3-1.6-.7-2.4-1-5.5-2.1-11-4.3-16.5-6.4-2.6 6.2-8.8 10.5-15.9 10.5s-13.3-4.3-15.9-10.5c-5.5 2.1-11 4.3-16.5 6.4-.8.3-1.6.6-2.4 1-6.3 2.6-12.1 6-14.5 13-.5 1.4-2.5 12.6-3.5 17.8-.2 1 .3 1.9 1.1 2.3.3.2.7.3 1.1.3h101.1c.4 0 .8-.1 1.1-.3C116.5 125.1 116.9 124.2 116.8 123.3z"
            class="fill-current"
          ></path>
        </svg>